<svg xmlns="http://www.w3.org/2000/svg" width="22.685" height="22.685" viewBox="0 0 22.685 22.685">
  <g id="Account" transform="translate(-12.9 -965.262)">
    <path id="Path_20" data-name="Path 20" d="M21.812,965.362a.651.651,0,0,0-.608.541l-.247,2.212c-.134.051-.267.1-.4.161l-1.738-1.386a.629.629,0,0,0-.807.038l-3.437,3.437a.63.63,0,0,0-.047.817l1.4,1.747c-.057.13-.121.257-.171.389l-2.212.247a.629.629,0,0,0-.541.608v4.862a.629.629,0,0,0,.541.6l2.212.247c.051.135.113.266.171.4l-1.4,1.747a.629.629,0,0,0,.047.807l3.437,3.437a.629.629,0,0,0,.807.047l1.747-1.4c.129.057.258.111.389.161l.247,2.222a.629.629,0,0,0,.608.541h4.862a.628.628,0,0,0,.608-.541l.247-2.222c.131-.05.26-.1.389-.161l1.747,1.4a.629.629,0,0,0,.807-.047l3.437-3.437a.629.629,0,0,0,.047-.807l-1.4-1.747c.058-.133.119-.264.171-.4l2.212-.247a.629.629,0,0,0,.541-.6v-4.862a.629.629,0,0,0-.541-.608l-2.212-.247c-.05-.132-.114-.259-.171-.389l1.4-1.747a.63.63,0,0,0-.047-.817l-3.437-3.437a.629.629,0,0,0-.807-.038l-1.738,1.386c-.132-.058-.265-.11-.4-.161l-.247-2.212a.629.629,0,0,0-.608-.541Zm.551,1.215h3.76l.228,2.032a.622.622,0,0,0,.418.5,7.845,7.845,0,0,1,.988.408.622.622,0,0,0,.646-.067l1.6-1.272,2.659,2.659-1.272,1.6a.622.622,0,0,0-.066.646,7.833,7.833,0,0,1,.4.988.622.622,0,0,0,.513.408l2.032.228v3.77l-2.032.228a.622.622,0,0,0-.513.408,7.818,7.818,0,0,1-.4.988.622.622,0,0,0,.066.655l1.272,1.6L30,985.027l-1.6-1.272a.622.622,0,0,0-.646-.076,7.864,7.864,0,0,1-.988.408.622.622,0,0,0-.418.513l-.228,2.032h-3.76l-.228-2.032a.622.622,0,0,0-.418-.513,7.863,7.863,0,0,1-.988-.408.622.622,0,0,0-.646.076l-1.6,1.272-2.668-2.668,1.272-1.6a.622.622,0,0,0,.066-.655,7.808,7.808,0,0,1-.4-.987.622.622,0,0,0-.513-.408l-2.032-.228v-3.77l2.032-.228a.622.622,0,0,0,.513-.408,7.817,7.817,0,0,1,.4-.988.622.622,0,0,0-.066-.646l-1.272-1.6,2.659-2.659,1.6,1.272a.622.622,0,0,0,.646.066,7.863,7.863,0,0,1,.988-.408.622.622,0,0,0,.418-.5Zm1.88,4.254a5.773,5.773,0,1,0,5.773,5.773A5.782,5.782,0,0,0,24.243,970.831Zm0,1.215a4.558,4.558,0,1,1-4.558,4.558A4.549,4.549,0,0,1,24.243,972.047Z" transform="translate(0)" fill="#313131" stroke="#fff" stroke-width="0.2"/>
  </g>
</svg>
