<svg xmlns="http://www.w3.org/2000/svg" width="17.655" height="22" viewBox="0 0 17.655 22">
  <g id="Address" transform="translate(-46.687 -5.75)">
    <g id="Group_70" data-name="Group 70" transform="translate(46.937 6)">
      <path id="Path_11" data-name="Path 11" d="M55.515,6a8.573,8.573,0,0,0-8.577,8.542s0,.008,0,.012c.043,2.473,1.361,4.777,2.974,6.9s3.56,4.081,5.02,5.782a.761.761,0,0,0,1.154,0c1.46-1.7,3.416-3.659,5.032-5.782s2.931-4.427,2.974-6.9q0-.006,0-.012A8.572,8.572,0,0,0,55.515,6Zm0,1.523A7.027,7.027,0,0,1,62.57,14.53s0,.008,0,.012c-.038,1.93-1.137,3.977-2.665,5.984-1.352,1.777-2.975,3.484-4.39,5.08-1.415-1.6-3.039-3.3-4.39-5.08C49.6,18.519,48.5,16.472,48.46,14.542c0,0,0-.008,0-.012A7.026,7.026,0,0,1,55.515,7.523Zm0,4.83a2.2,2.2,0,1,0,2.213,2.2A2.2,2.2,0,0,0,55.515,12.353Z" transform="translate(-46.937 -6)" fill="#313131" stroke="#fff" stroke-width="0.5"/>
    </g>
  </g>
</svg>
