<svg xmlns="http://www.w3.org/2000/svg" width="17.105" height="24.049" viewBox="0 0 17.105 24.049">
    <g id="noun_check_list_2103820" data-name="noun_check list_2103820" transform="translate(-19.053 -6.333)">
        <g id="Group_73" data-name="Group 73" transform="translate(19.203 6.496)">
            <path id="Path_21" fill="#313131" stroke="#313131" stroke-width="0.3px" d="M19.459 958.858a.3.3 0 0 0-.256.3v20.479a.3.3 0 0 0 .3.3h4.8a3.382 3.382 0 0 0 6.607 0h4.8a.3.3 0 0 0 .3-.3v-20.48a.3.3 0 0 0-.3-.3H19.5a.276.276 0 0 0-.043 0zm.341.6h15.61v19.882h-4.433c0-.043.009-.084.009-.128a3.339 3.339 0 0 0-.58-1.884 3.463 3.463 0 0 0-.418-.5 3.373 3.373 0 0 0-1.074-.725c-.1-.042-.2-.079-.3-.111h-.009c-.1-.032-.208-.063-.315-.085h-.009c-.107-.022-.222-.04-.333-.051h-.009a3.387 3.387 0 0 0-1.952.392c-.094.051-.185.111-.273.171a3.376 3.376 0 0 0-.716.648c-.071.085-.134.173-.2.264s-.118.177-.171.273a3.3 3.3 0 0 0-.145.3c-.043.1-.078.2-.111.307v.009c-.032.1-.063.208-.085.315a3.308 3.308 0 0 0-.068.682c0 .044.007.085.009.128H19.8v-19.89zm1.569 4.681v.759h.81v-.759zm2.046 0v.759h10.426v-.759zm-2.046 3.555v.767h.81v-.767zm2.046 0v.767h10.426v-.767zm-2.046 3.564v.767h.81v-.767zm2.046 0v.767h10.426v-.767zm4.185 5.172c.1 0 .188.008.281.017h.009c.091.01.185.025.273.043h.009a2.637 2.637 0 0 1 .256.068h.009c.084.026.167.06.247.094h.009l.077.034a2.717 2.717 0 0 1 .3.171c.061.038.121.077.179.119a2.767 2.767 0 0 1 .324.273c.061.061.124.121.179.188.024.03.045.063.068.094a2.761 2.761 0 0 1 .23.35c.015.027.02.058.034.085a2.795 2.795 0 0 1 .3 1.245c0 .064 0 .132-.009.2a2.776 2.776 0 0 1-5.516.222.3.3 0 0 0 0-.034c0-.035-.013-.067-.017-.1l-.009-.085c-.006-.064-.009-.132-.009-.2a2.76 2.76 0 0 1 .017-.281 2.962 2.962 0 0 1 .315-1.049c.043-.079.1-.148.145-.222a2.782 2.782 0 0 1 2.3-1.228zm1.628 1.381l-.034.009a.3.3 0 0 0-.153.077l-2.157 1.987-.716-.7a.3.3 0 1 0-.418.426l.912.9a.3.3 0 0 0 .418.008l2.37-2.182a.3.3 0 0 0-.222-.529z" data-name="Path 21" transform="translate(-19.203 -958.858)"/>
        </g>
    </g>
</svg>
