<svg xmlns="http://www.w3.org/2000/svg" width="16.761" height="17.2" viewBox="0 0 16.761 17.2">
  <g id="Logout" transform="translate(-25.415 -25.067)">
    <g id="Group_74" data-name="Group 74" transform="translate(25.683 25.317)">
      <path id="Path_22" data-name="Path 22" d="M11.133,16.225a.334.334,0,1,1-.223-.63,7.682,7.682,0,1,0-5.121,0,.334.334,0,0,1-.223.63,8.35,8.35,0,1,1,5.567,0ZM8.578,4.239l4.01,4.035a.334.334,0,1,1-.472.472l-3.2-3.2c-.129-.13-.236-.088-.236.095V13.7a.334.334,0,0,1-.667,0V5.64c0-.18-.106-.225-.236-.095l-3.2,3.2a.334.334,0,1,1-.472-.472l4-4.035A.329.329,0,0,1,8.578,4.239Z" transform="translate(16.244 0) rotate(90)" fill="#313131" stroke="#313131" stroke-width="0.5" fill-rule="evenodd"/>
    </g>
  </g>
</svg>
