<svg xmlns="http://www.w3.org/2000/svg" width="22.176" height="23.235" viewBox="0 0 22.176 23.235">
  <g id="Skip" transform="translate(-666.9 -406.9)">
    <path id="Path_30" data-name="Path 30" d="M20.216,21.333a9.014,9.014,0,1,1,1.147-.971l6.349,6.349a.749.749,0,0,1-1.059,1.059l-6.438-6.438ZM15,21.94A7.941,7.941,0,1,0,7.059,14,7.941,7.941,0,0,0,15,21.94Z" transform="translate(661 402)" fill="#0b7bff" stroke="#0b7bff" stroke-width="0.2"/>
    <path id="Path_31" data-name="Path 31" d="M6.864,2.918a.558.558,0,0,0,.058,1.114H13.6a.557.557,0,0,0,0-1.114H6.864Z" transform="translate(665.775 409.945)" fill="#0b7bff"/>
    <path id="Path_32" data-name="Path 32" d="M6.906,4.24a.557.557,0,0,0,0,1.114h6.677a.557.557,0,0,0,0-1.114Z" transform="translate(665.79 411.405)" fill="#0b7bff"/>
    <path id="Path_33" data-name="Path 33" d="M6.864,5.564a.558.558,0,0,0,.058,1.114H13.6a.557.557,0,0,0,0-1.114H6.864Z" transform="translate(665.775 412.867)" fill="#0b7bff"/>
  </g>
</svg>
