<svg xmlns="http://www.w3.org/2000/svg" width="18.917" height="21.364" viewBox="0 0 18.917 21.364">
    <g id="noun_User_1820725" transform="translate(-23 -19.4)">
        <path id="Path_8" fill="#313131" d="M32.441 30.2a5.4 5.4 0 1 0-5.42-5.385 5.424 5.424 0 0 0 5.42 5.385zm0-9.755a4.371 4.371 0 1 1-4.371 4.375 4.372 4.372 0 0 1 4.371-4.371zm9.3 19.686a9.757 9.757 0 0 0-9.3-7.762 9.721 9.721 0 0 0-9.3 7.762l-.14.629h18.916zm-17.412-.381a8.618 8.618 0 0 1 8.112-6.294 8.618 8.618 0 0 1 8.112 6.294z" data-name="Path 8"/>
    </g>
</svg>
