<svg xmlns="http://www.w3.org/2000/svg" width="23.424" height="23.428" viewBox="0 0 23.424 23.428">
  <path id="Path_3696" data-name="Path 3696" d="M25.426,38.837a2.04,2.04,0,0,0-2.881,0l-1.193,1.193h0l-.829.829a.7.7,0,0,1-.99,0l-6.374-6.374a.7.7,0,0,1,0-.99l.787-.787h0l1.234-1.234a2.039,2.039,0,0,0,0-2.881L12.2,25.615a2.04,2.04,0,0,0-2.881,0L8.09,26.849a8.612,8.612,0,0,0,0,12.165L15,45.928a8.6,8.6,0,0,0,12.165,0l.04-.04h0L28.4,44.693a2.04,2.04,0,0,0,0-2.881ZM10.169,26.461a.843.843,0,0,1,1.19,0l2.976,2.976a.842.842,0,0,1,0,1.19l-.811.811L9.358,27.272ZM21.086,47.252a7.358,7.358,0,0,1-5.237-2.169L8.935,38.169a7.413,7.413,0,0,1-.4-10.031l4.145,4.145-.365.365a1.9,1.9,0,0,0,0,2.681L18.687,41.7a1.9,1.9,0,0,0,2.681,0l.406-.406,4.148,4.148A7.35,7.35,0,0,1,21.086,47.252Zm6.471-3.4-.771.771L22.62,40.453l.771-.77a.862.862,0,0,1,1.19,0l2.976,2.976A.843.843,0,0,1,27.557,43.848Z" transform="translate(-5.574 -25.02)" fill="#0b7bff"/>
</svg>
