<svg width="20" height="20" viewBox="0 0 20 20" fill="none" xmlns="http://www.w3.org/2000/svg">
<path fill-rule="evenodd" clip-rule="evenodd" d="M3.41993 0.798211C4.15088 0.0672618 5.33598 0.0672641 6.06693 0.798212L8.54161 3.27289C9.27256 4.00384 9.27256 5.18894 8.54161 5.91989L7.08218 7.37932C6.93702 7.52448 6.93702 7.75983 7.08218 7.90499L12.095 12.9178C12.2402 13.063 12.4755 13.063 12.6207 12.9178L14.0801 11.4584C14.8111 10.7274 15.9962 10.7274 16.7271 11.4584L19.2018 13.9331C19.9327 14.664 19.9327 15.8491 19.2018 16.5801L18.0914 17.6905C15.3454 20.4365 10.8932 20.4365 8.14722 17.6905L2.3095 11.8528C-0.436499 9.10679 -0.4365 4.65464 2.3095 1.90865L3.41993 0.798211ZM5.00627 1.85887C4.86111 1.71371 4.62575 1.71371 4.48059 1.85887L4.02721 2.31225L7.02757 5.31261L7.48095 4.85923C7.62611 4.71407 7.62611 4.47872 7.48095 4.33355L5.00627 1.85887ZM5.96802 6.37438L2.98712 3.39348C1.21854 5.56607 1.34622 8.76819 3.37016 10.7921L9.20788 16.6298C11.2318 18.6537 14.4338 18.7815 16.6064 17.013L13.6255 14.0321C12.8912 14.709 11.747 14.6911 11.0343 13.9785L6.02152 8.96566C5.30887 8.253 5.29103 7.10864 5.96802 6.37438ZM18.1411 15.5194L17.6876 15.9729L14.6873 12.9726L15.1408 12.519C15.2859 12.3739 15.5213 12.3739 15.6664 12.519L18.1411 14.9937C18.2863 15.1389 18.2863 15.3742 18.1411 15.5194Z" fill="#fff"/>
</svg>
