<svg width="24" height="24" viewBox="7 9 24 24" fill="none" xmlns="http://www.w3.org/2000/svg">
<path fill-rule="evenodd" clip-rule="evenodd" d="M7.5 11C7.5 10.4477 7.94772 10 8.5 10H11.5C11.9522 10 12.3481 10.3034 12.4656 10.74L15.7664 23H26.7399L28.6844 16H17C16.4477 16 16 15.5523 16 15C16 14.4477 16.4477 14 17 14H30C30.3125 14 30.607 14.1461 30.7961 14.3949C30.9852 14.6437 31.0472 14.9665 30.9635 15.2676L28.4635 24.2676C28.3433 24.7005 27.9492 25 27.5 25H15C14.5478 25 14.1519 24.6966 14.0344 24.26L10.7336 12H8.5C7.94772 12 7.5 11.5523 7.5 11ZM18.5 29C18.5 30.1046 17.6046 31 16.5 31C15.3954 31 14.5 30.1046 14.5 29C14.5 27.8954 15.3954 27 16.5 27C17.6046 27 18.5 27.8954 18.5 29ZM25.5 31C26.6046 31 27.5 30.1046 27.5 29C27.5 27.8954 26.6046 27 25.5 27C24.3954 27 23.5 27.8954 23.5 29C23.5 30.1046 24.3954 31 25.5 31Z" fill="#0B7BFF"/>
</svg>
