<svg width="64" height="64" viewBox="0 0 64 64" fill="none" xmlns="http://www.w3.org/2000/svg">
<path d="M40.5607 39.0607C41.1464 38.4749 41.1464 37.5251 40.5607 36.9393C39.9749 36.3536 39.0251 36.3536 38.4393 36.9393L27.5 47.8787L23.0607 43.4393C22.4749 42.8536 21.5251 42.8536 20.9393 43.4393C20.3536 44.0251 20.3536 44.9749 20.9393 45.5607L26.4393 51.0607C27.0251 51.6464 27.9749 51.6464 28.5607 51.0607L40.5607 39.0607Z" fill="#fff"/>
<path fill-rule="evenodd" clip-rule="evenodd" d="M10.5 15.5C10.5 7.76801 16.768 1.5 24.5 1.5C29.973 1.5 34.7096 4.63991 37.0119 9.21297C43.7158 6.75786 51.4561 11.2918 52.4034 18.511C57.8707 18.7455 62.5 23.3384 62.5 29C62.5 34.4057 58.4163 38.8555 53.1648 39.436C53.1155 39.4414 53.066 39.4444 53.0165 39.445L49.9731 39.4784C50.3176 40.9295 50.5 42.4435 50.5 44C50.5 54.7696 41.7696 63.5 31 63.5C20.2304 63.5 11.5 54.7696 11.5 44C11.5 42.4512 11.6806 40.9446 12.0218 39.5H11.5C5.42487 39.5 0.5 34.5751 0.5 28.5C0.5 22.721 5.10614 17.9989 10.6475 17.5384C10.5503 16.8725 10.5 16.1918 10.5 15.5ZM52.9057 36.446L49.0009 36.4889C46.0595 29.448 39.1076 24.5 31 24.5C22.8882 24.5 15.9332 29.4531 12.9945 36.5H11.5C7.08172 36.5 3.5 32.9183 3.5 28.5C3.5 23.8221 7.7196 20.0541 12.3543 20.545C12.8526 20.5977 13.3444 20.3982 13.665 20.0131C13.9857 19.6279 14.0928 19.1081 13.9506 18.6276C13.6577 17.6381 13.5 16.5888 13.5 15.5C13.5 9.42487 18.4249 4.5 24.5 4.5C29.244 4.5 33.2902 7.50384 34.8331 11.7182C34.9829 12.1274 35.3034 12.4513 35.711 12.6055C36.1187 12.7597 36.5733 12.7289 36.9564 12.5212C42.4144 9.56293 49.4981 13.6715 49.5 19.9975V20L49.4999 20.0509C49.4987 20.4781 49.6798 20.8856 49.9977 21.171C50.3155 21.4565 50.74 21.5928 51.1647 21.5459C55.519 21.0644 59.5 24.6021 59.5 29C59.5 32.8352 56.6201 35.9998 52.9057 36.446ZM31 27.5C21.8873 27.5 14.5 34.8873 14.5 44C14.5 53.1127 21.8873 60.5 31 60.5C40.1127 60.5 47.5 53.1127 47.5 44C47.5 34.8873 40.1127 27.5 31 27.5Z" fill="#fff"/>
</svg>
