<svg width="64" height="64" viewBox="0 0 64 64" fill="none" xmlns="http://www.w3.org/2000/svg">
<path d="M40.9297 5.45472C41.1809 4.66529 40.7445 3.82171 39.9551 3.57053C39.1657 3.31934 38.3221 3.75568 38.0709 4.54511L35.072 13.9701L33.0912 13.1212C32.6757 12.9431 32.202 12.9619 31.802 13.1724C31.4019 13.3828 31.1181 13.7625 31.0294 14.2057L29.5294 21.7057C29.367 22.5181 29.8938 23.3083 30.7061 23.4708C31.5185 23.6333 32.3087 23.1064 32.4712 22.2941L33.6086 16.6069L35.4094 17.3786C35.7983 17.5453 36.2394 17.54 36.6241 17.364C37.0089 17.1881 37.3014 16.8579 37.4297 16.4547L40.9297 5.45472Z" fill="#00BA68"/>
<path fill-rule="evenodd" clip-rule="evenodd" d="M19.1716 14.6716C17.6095 13.1095 15.0768 13.1095 13.5147 14.6716L11.0398 17.1464C4.98672 23.1996 4.98672 33.0136 11.0398 39.0668L24.0506 52.0775C30.1037 58.1307 39.9178 58.1306 45.9709 52.0775L48.4458 49.6026C50.0079 48.0406 50.0079 45.5079 48.4458 43.9458L42.9304 38.4304C41.3683 36.8683 38.8356 36.8683 37.2735 38.4304L34.0208 41.6831C33.6303 42.0736 32.9971 42.0736 32.6066 41.6831L21.4343 30.5108C21.0438 30.1202 21.0438 29.4871 21.4343 29.0965L24.687 25.8439C26.2491 24.2818 26.2491 21.7491 24.687 20.187L19.1716 14.6716ZM15.636 16.7929C16.0266 16.4024 16.6597 16.4024 17.0503 16.7929L22.5657 22.3083C22.9562 22.6989 22.9562 23.332 22.5657 23.7225L21.4341 24.8541L14.5045 17.9244L15.636 16.7929ZM12.4169 20.0795L19.3128 26.9754C17.7509 28.5375 17.751 31.07 19.313 32.6321L30.4853 43.8044C32.0474 45.3665 34.58 45.3665 36.1421 43.8044L43.0386 50.6998C38.1275 54.8237 30.7916 54.5759 26.1719 49.9562L13.1612 36.9454C8.54176 32.326 8.29369 24.9906 12.4169 20.0795ZM45.1937 48.6121L46.3245 47.4813C46.715 47.0908 46.715 46.4576 46.3245 46.0671L40.809 40.5517C40.4185 40.1612 39.7853 40.1612 39.3948 40.5517L38.264 41.6825L45.1937 48.6121Z" fill="#00BA68"/>
<path d="M50.9002 11.3001C51.5629 11.7971 51.6972 12.7373 51.2002 13.4001L43.7002 23.4001C43.425 23.767 42.9971 23.9878 42.5386 23.9996C42.0801 24.0113 41.6415 23.8127 41.3479 23.4604L40.1565 22.0308L36.762 27.3112C36.314 28.0081 35.3859 28.2098 34.689 27.7619C33.9922 27.3139 33.7904 26.3858 34.2384 25.689L38.7384 18.689C38.9967 18.2872 39.4309 18.0324 39.9077 18.0029C40.3844 17.9735 40.8467 18.1729 41.1525 18.5398L42.4382 20.0827L48.8002 11.6001C49.2972 10.9373 50.2374 10.803 50.9002 11.3001Z" fill="#00BA68"/>
<path d="M59.2898 25.2754C59.9942 24.8393 60.2117 23.9148 59.7757 23.2104C59.3396 22.506 58.4151 22.2885 57.7107 22.7246L48.8975 28.1804L48.4425 26.5879C48.3159 26.1448 47.9927 25.7845 47.5659 25.6107C47.1391 25.4369 46.6561 25.469 46.2561 25.6976L39.2561 29.6976C38.5368 30.1086 38.2869 31.0249 38.6979 31.7442C39.1089 32.4634 40.0252 32.7133 40.7445 32.3023L46.0835 29.2514L46.558 30.912C46.6871 31.364 47.0207 31.7294 47.4591 31.8989C47.8975 32.0685 48.3901 32.0228 48.7898 31.7754L59.2898 25.2754Z" fill="#00BA68"/>
</svg>
