<svg width="64" height="64" viewBox="0 0 64 64" fill="none" xmlns="http://www.w3.org/2000/svg">
<path fill-rule="evenodd" clip-rule="evenodd" d="M7.5 14C7.5 12.1197 8.38279 10.4488 9.73228 9.0616C11.075 7.6814 12.9448 6.50707 15.1385 5.55333C19.5304 3.64379 25.493 2.5 32 2.5C38.507 2.5 44.4696 3.64379 48.8615 5.55333C51.0552 6.50707 52.925 7.6814 54.2677 9.0616C55.6172 10.4488 56.5 12.1197 56.5 14V50C56.5 51.8803 55.6172 53.5512 54.2677 54.9384C52.925 56.3186 51.0552 57.4929 48.8615 58.4467C44.4696 60.3562 38.507 61.5 32 61.5C25.493 61.5 19.5304 60.3562 15.1385 58.4467C12.9448 57.4929 11.075 56.3186 9.73228 54.9384C8.38279 53.5512 7.5 51.8803 7.5 50V14ZM10.5 14C10.5 13.1189 10.9044 12.1591 11.8826 11.1535C12.8677 10.1409 14.3661 9.16044 16.3346 8.30454C20.2671 6.59478 25.8045 5.5 32 5.5C38.1955 5.5 43.7329 6.59478 47.6654 8.30454C49.6339 9.16044 51.1323 10.1409 52.1174 11.1535C53.0956 12.1591 53.5 13.1189 53.5 14C53.5 14.8811 53.0956 15.8409 52.1174 16.8465C51.1323 17.8591 49.6339 18.8396 47.6654 19.6955C43.7329 21.4052 38.1955 22.5 32 22.5C25.8045 22.5 20.2671 21.4052 16.3346 19.6955C14.3661 18.8396 12.8677 17.8591 11.8826 16.8465C10.9044 15.8409 10.5 14.8811 10.5 14ZM10.5 31.6573V38C10.5 38.8811 10.9044 39.8409 11.8826 40.8465C12.8677 41.8591 14.3661 42.8396 16.3346 43.6955C20.2671 45.4052 25.8045 46.5 32 46.5C38.1955 46.5 43.7329 45.4052 47.6654 43.6955C49.6339 42.8396 51.1323 41.8591 52.1174 40.8465C53.0956 39.8409 53.5 38.8811 53.5 38V31.6573C52.2476 32.7305 50.6638 33.6631 48.8615 34.4467C44.4696 36.3562 38.507 37.5 32 37.5C25.493 37.5 19.5304 36.3562 15.1385 34.4467C13.3362 33.6631 11.7524 32.7305 10.5 31.6573ZM53.5 26C53.5 26.8811 53.0956 27.8409 52.1174 28.8465C51.1323 29.8591 49.6339 30.8396 47.6654 31.6955C43.7329 33.4052 38.1955 34.5 32 34.5C25.8045 34.5 20.2671 33.4052 16.3346 31.6955C14.3661 30.8396 12.8677 29.8591 11.8826 28.8465C10.9044 27.8409 10.5 26.8811 10.5 26V19.6573C11.7524 20.7305 13.3362 21.6631 15.1385 22.4467C19.5304 24.3562 25.493 25.5 32 25.5C38.507 25.5 44.4696 24.3562 48.8615 22.4467C50.6638 21.6631 52.2476 20.7305 53.5 19.6573V26ZM53.5 43.6573C52.2476 44.7305 50.6638 45.6631 48.8615 46.4467C44.4696 48.3562 38.507 49.5 32 49.5C25.493 49.5 19.5304 48.3562 15.1385 46.4467C13.3362 45.6631 11.7524 44.7305 10.5 43.6573V50C10.5 50.8811 10.9044 51.8409 11.8826 52.8465C12.8677 53.8591 14.3661 54.8396 16.3346 55.6955C20.2671 57.4052 25.8045 58.5 32 58.5C38.1955 58.5 43.7329 57.4052 47.6654 55.6955C49.6339 54.8396 51.1323 53.8591 52.1174 52.8465C53.0956 51.8409 53.5 50.8811 53.5 50V43.6573Z" fill="url(#paint0_linear)"/>
<defs>
<linearGradient id="paint0_linear" x1="8" y1="59.5" x2="66.5" y2="18.5" gradientUnits="userSpaceOnUse">
<stop stop-color="#6B6DEC"/>
<stop offset="1" stop-color="#BA3C8F"/>
</linearGradient>
</defs>
</svg>
