<svg xmlns="http://www.w3.org/2000/svg" width="46.427" height="45.209" viewBox="0 0 46.427 45.209">
  <g id="Group_396" data-name="Group 396" transform="translate(-178.573 -1910.465)">
    <g id="noun_List_2433094" transform="translate(173.701 1892.934)">
      <g id="Group_395" data-name="Group 395" transform="translate(4.872 17.531)">
        <path id="Path_3706" data-name="Path 3706" d="M19.023,17.531a1.546,1.546,0,0,0-1.175.58l-7.276,8.773L7.594,23.793a1.546,1.546,0,1,0-2.221,2.141l4.185,4.33a1.546,1.546,0,0,0,2.3-.08l8.371-10.109a1.546,1.546,0,0,0-1.207-2.543Zm8.4,7.228a1.545,1.545,0,1,0,0,3.091H49.754a1.545,1.545,0,1,0,0-3.091Zm-8.4,8.975a1.546,1.546,0,0,0-1.175.58L10.572,43.1,7.594,40.012a1.546,1.546,0,1,0-2.221,2.141l4.185,4.33a1.546,1.546,0,0,0,2.3-.08l8.371-10.109a1.546,1.546,0,0,0-1.207-2.56Zm8.242,7.244a1.547,1.547,0,1,0,.161,3.091H49.754a1.545,1.545,0,1,0,0-3.091H27.426a1.549,1.549,0,0,0-.161,0Z" transform="translate(-4.872 -17.531)" fill="#4367ff"/>
      </g>
    </g>
    <g id="noun_List_2433094-2" data-name="noun_List_2433094" transform="translate(173.701 1924.934)">
      <g id="Group_395-2" data-name="Group 395" transform="translate(4.872 17.531)">
        <path id="Path_3706-2" data-name="Path 3706" d="M19.023,17.531a1.546,1.546,0,0,0-1.175.58l-7.276,8.773L7.594,23.793a1.546,1.546,0,1,0-2.221,2.141l4.185,4.33a1.546,1.546,0,0,0,2.3-.08l8.371-10.109a1.546,1.546,0,0,0-1.207-2.543Zm8.4,7.228a1.545,1.545,0,1,0,0,3.091H49.754a1.545,1.545,0,1,0,0-3.091Z" transform="translate(-4.872 -17.531)" fill="#4367ff"/>
      </g>
    </g>
  </g>
</svg>
