<svg xmlns="http://www.w3.org/2000/svg" width="49.488" height="60.8" viewBox="0 0 49.488 60.8">
  <g id="noun_Data_1759531" transform="translate(-15 -7)">
    <g id="Group_354" data-name="Group 354" transform="translate(15 7)">
      <path id="Path_3697" data-name="Path 3697" d="M39.744,959.362a44.88,44.88,0,0,0-17.056,3,16.937,16.937,0,0,0-5.435,3.446A6.976,6.976,0,0,0,15,970.674v38.177a6.927,6.927,0,0,0,2.253,4.838,16.939,16.939,0,0,0,5.435,3.446,44.856,44.856,0,0,0,17.056,3.027,44.855,44.855,0,0,0,17.056-3.027,16.939,16.939,0,0,0,5.435-3.446,6.927,6.927,0,0,0,2.253-4.838V970.674a6.976,6.976,0,0,0-2.253-4.86,16.937,16.937,0,0,0-5.435-3.446,44.879,44.879,0,0,0-17.056-3Zm0,2.828A42.469,42.469,0,0,1,55.7,964.974a14.521,14.521,0,0,1,4.551,2.828,4.087,4.087,0,0,1,1.414,2.872,4.044,4.044,0,0,1-1.414,2.85,14.52,14.52,0,0,1-4.551,2.828,42.435,42.435,0,0,1-15.951,2.806,42.435,42.435,0,0,1-15.951-2.806,14.52,14.52,0,0,1-4.551-2.828,4.044,4.044,0,0,1-1.414-2.85,4.087,4.087,0,0,1,1.414-2.872,14.521,14.521,0,0,1,4.551-2.828A42.469,42.469,0,0,1,39.744,962.19ZM17.828,976.064a18.053,18.053,0,0,0,4.86,2.894,44.858,44.858,0,0,0,17.056,3.027A44.857,44.857,0,0,0,56.8,978.959a18.053,18.053,0,0,0,4.86-2.894V983.4a4.044,4.044,0,0,1-1.414,2.85,14.515,14.515,0,0,1-4.551,2.828,42.432,42.432,0,0,1-15.951,2.806,42.433,42.433,0,0,1-15.951-2.806,14.514,14.514,0,0,1-4.551-2.828,4.044,4.044,0,0,1-1.414-2.85Zm0,12.726a18.058,18.058,0,0,0,4.86,2.894,44.859,44.859,0,0,0,17.056,3.027A44.859,44.859,0,0,0,56.8,991.684a18.058,18.058,0,0,0,4.86-2.894v7.335a4.044,4.044,0,0,1-1.414,2.85A14.515,14.515,0,0,1,55.7,1001.8a42.432,42.432,0,0,1-15.951,2.806,42.433,42.433,0,0,1-15.951-2.806,14.515,14.515,0,0,1-4.551-2.828,4.044,4.044,0,0,1-1.414-2.85Zm0,12.726a18.058,18.058,0,0,0,4.86,2.894,44.859,44.859,0,0,0,17.056,3.027A44.86,44.86,0,0,0,56.8,1004.41a18.058,18.058,0,0,0,4.86-2.894v7.335a4.044,4.044,0,0,1-1.414,2.85,14.52,14.52,0,0,1-4.551,2.828,42.435,42.435,0,0,1-15.951,2.806,42.436,42.436,0,0,1-15.951-2.806,14.52,14.52,0,0,1-4.551-2.828,4.044,4.044,0,0,1-1.414-2.85v-7.335Z" transform="translate(-15 -959.362)" fill="#ff5353"/>
    </g>
  </g>
</svg>
