<svg xmlns="http://www.w3.org/2000/svg" width="58.992" height="58.982" viewBox="0 0 58.992 58.982">
  <g id="noun_Globe_745864" transform="translate(-30.049 -29.631)">
    <path id="Path_3688" data-name="Path 3688" d="M88.958,56.873a1.027,1.027,0,0,0-.035-.37,27.317,27.317,0,1,0,.035.37ZM57.243,32.725c.274-.206.529-.4.752-.6a1,1,0,0,0,.265-.417c.418-.018.84-.029,1.262-.029a27.565,27.565,0,0,1,6.12.692A27.459,27.459,0,0,1,86.9,56.809c-.451,2.386-2.879,3.685-5.451,5.056-2.841,1.513-5.777,3.077-5.725,6.361a8.377,8.377,0,0,1-2.54.184c-1.793-.018-3.823-.046-5.037,1.021-1.291,1.135-3.963-.475-4.8-1.128a3.757,3.757,0,0,0-1.831-.542,5.122,5.122,0,0,1-1.42-.317.924.924,0,0,1,.053-.193c.4-1.1,1.125-1.233,2.876-1.451.484-.061.982-.124,1.517-.225,1.852-.356,5.563-2.164,5.83-3.935a1.492,1.492,0,0,0-.839-1.578c-6.1-3.224-7.036-9.915-7.043-9.98l-.072-.577-.007,0c.008-.162.018-.345.028-.5.105-1.687.279-4.511-1.725-5.123a10.7,10.7,0,0,0-2.144-.386,9.387,9.387,0,0,1-3.28-.829c-1.259-.561-1.283-.911-.889-3.4.1-.623.211-1.33.3-2.139A5.459,5.459,0,0,1,57.243,32.725Zm-13.4,48.911A27.462,27.462,0,0,1,32.61,53.945a1.02,1.02,0,0,0,.373.175c2.5.6,5.006,1.675,5.329,2.272-.035.324-.087.659-.139,1-.248,1.614-.558,3.624,1.043,4.79,1.346.978,2.56-.065,3.213-.625.13-.112.307-.264.442-.361a14.894,14.894,0,0,0,1.47,1.177c.564.416,2.281,1.683,2.185,2.1a15.251,15.251,0,0,1-.515,1.607c-.548,1.528-1.021,2.849-.225,3.689a21.969,21.969,0,0,1,2.085,3.948,7.84,7.84,0,0,0,.029,1.034,8.115,8.115,0,0,1-.027,2.093C47.01,78.281,44.753,81.192,43.846,81.637ZM86.3,65.22A27.283,27.283,0,0,1,59.572,86.566a27.656,27.656,0,0,1-13.9-3.76,25.739,25.739,0,0,0,3.959-4.922,6.125,6.125,0,0,0,.311-3.273c-.017-.264-.041-.625-.043-.664.231-1.018-1.859-4.533-2.49-5.416a10.106,10.106,0,0,1,.528-1.768,16.613,16.613,0,0,0,.583-1.843c.4-1.721-1.391-3.038-2.966-4.2a11.673,11.673,0,0,1-1.333-1.072c-1.219-1.287-2.559-.139-3.131.352a3.734,3.734,0,0,1-.686.513c-.537-.407-.432-1.379-.212-2.812.061-.4.122-.788.159-1.169.229-2.328-4.221-3.757-6.894-4.4a1.013,1.013,0,0,0-.441-.005,27.259,27.259,0,0,1,21.8-20.048,7.471,7.471,0,0,0-2.161,4.817c-.084.762-.192,1.443-.287,2.044-.386,2.436-.69,4.361,2.078,5.593a11.413,11.413,0,0,0,3.9,1,8.9,8.9,0,0,1,1.762.309c.137.042.441.423.279,3.038a4.014,4.014,0,0,0,.1,1.735A16.18,16.18,0,0,0,68.082,61.6a9.6,9.6,0,0,1-3.929,1.961c-.47.09-.935.149-1.386.2-1.736.217-3.705.464-4.546,2.783a2.171,2.171,0,0,0,.095,1.943c.6.987,1.887,1.16,2.925,1.3a6.127,6.127,0,0,1,.88.156,8.753,8.753,0,0,0,4.873,1.924,3.669,3.669,0,0,0,2.5-.9c.624-.549,2.308-.526,3.66-.511,1.722.022,3.215.04,4.064-.818a1.948,1.948,0,0,0,.552-1.449c-.048-1.885,1.72-2.965,4.637-4.518A19.884,19.884,0,0,0,86.938,60.7,27.674,27.674,0,0,1,86.3,65.22Z" fill="#ff7f21"/>
  </g>
</svg>
