<svg xmlns="http://www.w3.org/2000/svg" width="56.225" height="50.828" viewBox="0 0 56.225 50.828">
  <g id="noun_sales_501944" transform="translate(-25.45 -16.646)">
    <path id="Path_3687" data-name="Path 3687" d="M55.271,61.1a.785.785,0,0,1-.786-.791L54.5,58.5l-43.624.012c-1.537,0-1.656-.923-1.656-1.207V18.558l-1.86-.013a.786.786,0,0,1-.711-1.107l2.779-6.2a.786.786,0,0,1,.717-.464h0a.785.785,0,0,1,.717.468c2.791,6.323,2.791,6.323,2.791,6.553a.784.784,0,0,1-.232.558.683.683,0,0,1-.559.228l-2.07-.013V56.937h.084l43.636-.013.014-2.118a.787.787,0,0,1,1.108-.711l6.2,2.779a.786.786,0,0,1,0,1.436C55.5,61.1,55.5,61.1,55.271,61.1Zm.815-5.078-.021,3.1c.9-.39,2.233-.976,3.507-1.537ZM8.572,16.982l3.1.021c-.391-.9-.977-2.233-1.538-3.507ZM46.154,53.908a.786.786,0,0,1-.786-.786V43.916a.786.786,0,1,1,1.572,0v9.207A.785.785,0,0,1,46.154,53.908Zm-8.982,0a.786.786,0,0,1-.786-.786V42.793a.786.786,0,0,1,1.572,0V53.123A.785.785,0,0,1,37.173,53.908Zm-8.982,0a.786.786,0,0,1-.786-.786V37.4a.786.786,0,0,1,1.572,0V53.122A.786.786,0,0,1,28.191,53.908Zm-8.533,0a.786.786,0,0,1-.786-.786V25.5a.786.786,0,0,1,1.572,0V53.122A.786.786,0,0,1,19.658,53.908Zm37.111-6.553a2.166,2.166,0,0,1-1.56-.632L48.737,40.25a.777.777,0,0,1-.115-.147,3.814,3.814,0,0,1-.329-.626,2.359,2.359,0,0,1-.1-.574.817.817,0,0,1,0-.137l.123-1.1-2.555-2.5c-.264.189-.558.4-.711.5a11.394,11.394,0,0,1-6.5,1.878A12.193,12.193,0,1,1,50.747,25.358a11.729,11.729,0,0,1-1.885,6.518c-.11.164-.311.447-.494.7l2.512,2.46,1.108-.126a.5.5,0,0,1,.092-.005,2.292,2.292,0,0,1,.692.09,3.671,3.671,0,0,1,.67.367.817.817,0,0,1,.13.1l6.445,6.446a2.215,2.215,0,0,1,.536,2.026A3.655,3.655,0,0,1,59.539,45.8l-.531.531A3.228,3.228,0,0,1,56.769,47.354ZM49.913,39.2l6.408,6.408c.328.327,1.035.155,1.575-.386l.531-.531a2.13,2.13,0,0,0,.583-1.048.742.742,0,0,0-.1-.618L52.519,36.64c-.07-.044-.177-.111-.257-.151a1.357,1.357,0,0,0-.144-.009l-1.433.164a.774.774,0,0,1-.639-.219l-2.688-2.632c-.081.087-.16.169-.224.232-.042.042-.092.09-.147.142l2.7,2.643a.785.785,0,0,1,.232.649l-.157,1.411a.947.947,0,0,0,.017.12C49.805,39.027,49.868,39.129,49.913,39.2ZM38.544,14.733a10.621,10.621,0,1,0,.016,21.243,9.856,9.856,0,0,0,5.618-1.61c.273-.184,1.016-.72,1.175-.835.106-.094.483-.428.672-.618.213-.212.619-.663.619-.663l.017.015c.012-.02.025-.04.038-.058,0,0,.632-.871.86-1.209a10.148,10.148,0,0,0,1.617-5.639A10.642,10.642,0,0,0,38.544,14.733ZM38.52,33.474a.786.786,0,0,1-.786-.786v-.37a6.129,6.129,0,0,1-2.848-1.141.786.786,0,1,1,1.065-1.156,4.355,4.355,0,0,0,1.783.7V25.784c-1.7-.95-3.632-2.175-2.929-4.841A3.316,3.316,0,0,1,37.013,18.7a4.372,4.372,0,0,1,.721-.185v-.425a.786.786,0,1,1,1.572,0v.413a7.027,7.027,0,0,1,3.156,1.356.786.786,0,0,1-.937,1.262A5.6,5.6,0,0,0,39.306,20.1v4.758c2.065,1.13,3.654,2.089,3.378,4.493a3.162,3.162,0,0,1-2.106,2.782,4.648,4.648,0,0,1-1.272.267v.292A.787.787,0,0,1,38.52,33.474Zm.786-6.817v4.161a2.946,2.946,0,0,0,.724-.162,1.621,1.621,0,0,0,1.093-1.488C41.253,28.025,40.751,27.5,39.306,26.657Zm-1.572-6.532c-.068.018-.135.039-.2.062a1.779,1.779,0,0,0-1.209,1.157c-.315,1.2.143,1.821,1.409,2.616Z" transform="translate(19.132 6.121)" fill="#27bc55" stroke="#27bc55" stroke-width="0.5"/>
  </g>
</svg>
