<svg width="64" height="64" viewBox="0 0 64 64" fill="none" xmlns="http://www.w3.org/2000/svg">
<path d="M34 35C35.1046 35 36 34.1046 36 33C36 31.8954 35.1046 31 34 31C32.8954 31 32 31.8954 32 33C32 34.1046 32.8954 35 34 35Z" fill="#FD7F32"/>
<path fill-rule="evenodd" clip-rule="evenodd" d="M18.5325 10.691C18.7031 9.88039 19.4987 9.36157 20.3093 9.53224L20.4473 9.56129C20.6251 9.52118 20.8101 9.5 21 9.5H43C44.3807 9.5 45.5 10.6193 45.5 12V48.5H50C50.8284 48.5 51.5 49.1716 51.5 50C51.5 50.8284 50.8284 51.5 50 51.5H40.5003V54.0001C40.5003 54.4521 40.2964 54.88 39.9454 55.1649C39.5944 55.4497 39.1336 55.561 38.6913 55.4679L19.8438 51.5H14C13.1716 51.5 12.5 50.8284 12.5 50C12.5 49.1716 13.1716 48.5 14 48.5H18.5V12C18.5 11.8055 18.5222 11.6161 18.5643 11.4344C18.4934 11.2008 18.4787 10.9467 18.5325 10.691ZM21.5 48.7829V12.8487L37.5003 16.2172V52.1514L21.5 48.7829ZM42.5 12.5H34.4062L39.3093 13.5322C40.0034 13.6784 40.5003 14.2907 40.5003 15.0001V48.5H42.5V12.5Z" fill="#FD7F32"/>
</svg>
