<svg width="64" height="64" viewBox="0 0 64 64" fill="none" xmlns="http://www.w3.org/2000/svg">
<path fill-rule="evenodd" clip-rule="evenodd" d="M32 2.5C15.7076 2.5 2.5 15.7076 2.5 32C2.5 48.2924 15.7076 61.5 32 61.5C48.2924 61.5 61.5 48.2924 61.5 32C61.5 15.7076 48.2924 2.5 32 2.5ZM31.0899 5.51534C31.392 5.50514 31.6954 5.5 32 5.5C37.9975 5.5 43.5296 7.49234 47.9706 10.8513C47.964 10.8698 47.9571 10.8889 47.95 10.9084C47.8362 11.2214 47.6661 11.6476 47.4423 12.1009C46.9498 13.099 46.3761 13.8585 45.8589 14.158C45.5714 14.3245 45.0926 14.4997 44.3846 14.688C43.9505 14.8034 43.5519 14.8949 43.1269 14.9925C42.8261 15.0616 42.5111 15.1339 42.1619 15.2197C41.4387 15.3973 40.567 15.6341 39.8538 16.0043C39.1996 16.3439 38 17.1634 38 18.7406V19.3317L38.3213 19.8279C38.8325 20.617 39.5727 21.1601 40.2619 21.5365C40.9668 21.9214 41.7499 22.2033 42.5067 22.4104C44.0138 22.8229 45.6441 22.9999 46.8611 22.9999C48.4123 22.9999 49.5567 22.4544 50.3283 22.032C50.5165 21.929 50.6508 21.8524 50.7599 21.7902C50.911 21.7041 51.014 21.6453 51.1449 21.5821C51.1507 21.5793 51.1563 21.5766 51.1616 21.5741C51.1756 21.5675 51.1879 21.5619 51.1986 21.5572C51.7205 21.5711 52.99 21.6651 54.2733 21.7709C54.9419 21.826 55.5784 21.8813 56.0482 21.9227C56.2421 21.9398 56.4073 21.9546 56.5344 21.966C57.8015 25.0609 58.5 28.4489 58.5 32C58.5 32.4359 58.4895 32.8694 58.4687 33.3002C57.9984 33.5172 57.5522 33.7897 57.1083 34.0608C56.8948 34.1912 56.6818 34.3212 56.4669 34.4447C55.6237 34.929 55.0338 35.1606 54.6028 35.1606C53.9626 35.1606 53.4237 35.2858 52.9492 35.5026C52.7204 35.607 52.5104 35.7688 52.2999 35.931C51.9431 36.2058 51.5849 36.4817 51.1318 36.4817C49.5856 36.4817 48.6338 37.375 48.0869 38.2109C47.7211 38.77 47.4562 39.3965 47.1942 40.0163C47.114 40.206 47.0341 40.395 46.9516 40.5813C46.3261 40.6604 45.8491 41.0036 45.5384 41.4104C45.2126 41.8369 45.0988 42.3183 44.9843 42.8023C44.9014 43.1525 44.8183 43.5041 44.6542 43.837C44.2995 44.5572 44.549 45.253 44.6347 45.479C44.7783 45.8578 44.996 46.2062 45.2135 46.5545C45.4831 46.986 45.7526 47.4173 45.8806 47.9056C45.775 47.9606 45.5637 48.0468 45.1742 48.1225C44.7316 47.8384 44.4106 47.3581 44.1461 46.9168C43.709 46.1876 43.5861 45.4868 43.3299 44.7074C43.0869 43.9682 42.7031 43.2285 42.1313 42.6904C41.7998 42.3784 41.2459 42 40.4996 42C39.6116 42 38.517 41.994 37.4804 41.6433C36.583 41.3397 35.4741 41.243 34.4099 41.7179C33.3135 42.2073 32.5226 43.1874 32.0766 44.5258C31.752 45.4999 31.6481 46.6584 31.7431 47.7028C31.8322 48.6837 32.1282 49.9074 32.9313 50.7225C33.4229 51.2214 33.9648 51.7104 34.6731 51.855C35.3142 51.9859 35.8879 51.795 36.2832 51.6159C35.9733 52.7094 35.8147 53.9769 36.4967 54.9618C36.8012 55.4015 37.1734 55.8036 37.4315 56.2742C37.6985 56.7608 37.6042 57.3593 37.9079 57.839C37.6726 57.8926 37.4361 57.943 37.1985 57.9903C36.8686 57.2041 36.3229 56.275 35.7042 55.4056C34.4022 53.5758 32.7668 52.2852 30.973 50.9847C30.7137 50.7966 30.4357 50.6033 30.1479 50.4031C28.5012 49.2578 26.5354 47.8905 25.9249 46.0319C25.3122 44.1661 23.6663 42.5333 22.2254 41.1038C21.9998 40.88 21.7792 40.6611 21.5683 40.4471C20.366 39.2268 19.9998 36.6109 19.9998 34.9999C19.9998 33.6582 20.4279 32.0766 20.9218 30.6054C21.0278 30.2898 21.1592 29.9624 21.2934 29.628C21.6374 28.7711 21.9998 27.8683 21.9998 26.9999C21.9998 26.361 21.8481 25.7422 21.6964 25.1235C21.5447 24.5049 21.3931 23.8863 21.3931 23.2478C21.3931 22.3114 21.1687 21.5453 20.6952 20.8109C19.2744 18.6075 17.1124 17.3389 14.4555 17.4822C13.5407 17.5315 12.7476 17.6572 12.1019 18.3916C11.9146 18.6047 11.7714 18.8647 11.6284 19.1244C11.453 19.4429 11.2777 19.7612 11.0213 19.9923C11.0119 20.0007 11.0126 20.0028 11.0126 20.0028C11.0126 20.0028 11.0128 20 10.9997 20C10.0391 20 9.33516 19.8356 8.7475 19.2786C10.1988 16.6314 12.0891 14.259 14.3203 12.2594C17.4124 10.531 21.6104 10.5 24.0001 10.5C24.9517 10.5 25.7369 10.7651 26.7247 11.0985C26.9402 11.1713 27.1654 11.2473 27.4041 11.3245C28.6667 11.7331 30.2444 12.1266 32.063 11.3904C32.5181 11.2061 33.2423 10.7584 33.3646 9.82331C33.4627 9.07275 33.0771 8.488 32.9148 8.25666C32.7088 7.96304 32.4419 7.67642 32.2312 7.45338C32.1793 7.39837 32.1288 7.3452 32.0794 7.29322C31.9031 7.10776 31.7414 6.93762 31.5818 6.75461C31.144 6.25251 30.9985 5.95062 30.9765 5.78965C30.9711 5.75016 30.9717 5.71807 31.0003 5.65723C31.0153 5.62531 31.0423 5.57752 31.0899 5.51534ZM27.9738 5.80389C25.8226 6.13179 23.7564 6.71835 21.808 7.53084C22.6279 7.49976 23.3454 7.49989 23.9063 7.5L24.0001 7.50001C25.4932 7.50001 26.8161 7.95431 27.8127 8.29656C27.9957 8.35941 28.1677 8.41847 28.3277 8.47025C28.7016 8.59122 29.0302 8.68339 29.3325 8.73973L29.3208 8.72639C28.838 8.17278 28.1543 7.29556 28.0041 6.19577C27.986 6.06371 27.976 5.93305 27.9738 5.80389ZM7.43336 22.045C6.18666 25.1186 5.5 28.4791 5.5 32C5.5 46.6355 17.3645 58.5 32 58.5C32.6967 58.5 33.3871 58.4731 34.0703 58.4203C33.8587 58.0399 33.5856 57.6027 33.2598 57.1449C32.0782 55.4843 30.5197 54.3571 28.9072 53.1909C28.681 53.0273 28.4536 52.8628 28.226 52.696C26.2101 51.2183 23.8856 49.4369 23.0747 46.9679C22.6372 45.6357 21.3211 44.3755 20.2028 43.3048C19.9285 43.0422 19.6659 42.7908 19.4313 42.5526C17.6566 40.7514 16.9998 37.4228 16.9998 34.9999C16.9998 33.1356 17.5718 31.1576 18.0778 29.6505C18.1815 29.3417 18.2989 29.0348 18.4165 28.7271C18.6404 28.1414 18.8652 27.5533 18.9983 26.9459C18.9665 26.3653 18.8336 25.8007 18.7004 25.2349C18.5469 24.5829 18.3931 23.9293 18.3931 23.2478C18.3931 21.5911 16.3038 20.4454 14.8585 20.4852C14.6787 20.4901 14.4813 20.4956 14.2624 20.4982L14.2371 20.5373C13.4467 21.7562 12.6403 23 10.9997 23C9.63615 23 8.44007 22.7047 7.43336 22.045ZM40.8555 56.9842C49.61 53.8812 56.2491 46.3072 58.0276 37.0075C58.0054 37.0205 57.9833 37.0334 57.9611 37.0461C57.1151 37.532 55.9073 38.1606 54.6028 38.1606C54.3752 38.1606 54.2633 38.2005 54.1955 38.2314C53.9436 38.3465 53.7209 38.5136 53.4971 38.6816C53.2713 38.8511 53.0444 39.0214 52.7854 39.1397C52.3109 39.3564 51.772 39.4817 51.1318 39.4817C50.6897 39.4817 50.4567 40.0422 50.2985 40.4228C50.2825 40.4611 50.2673 40.4977 50.2528 40.5316C50.1849 40.6899 50.1189 40.8535 50.0522 41.019C49.8277 41.5761 49.5945 42.1549 49.2472 42.6251C48.908 43.0844 48.4118 43.3935 47.8543 43.506C47.8236 43.6247 47.7952 43.7437 47.7667 43.8627C47.7038 44.1258 47.641 44.3885 47.5549 44.646C47.6601 44.8365 47.7703 45.0241 47.8805 45.2116C48.1482 45.6673 48.4156 46.1223 48.6093 46.618C48.8757 47.2998 49.1644 48.4531 48.4576 49.5276C47.1679 51.4881 44.3168 51.55 42.7458 49.9914C41.9097 49.1618 41.2874 48.0969 40.8502 47.0088C40.7456 46.7486 40.6814 46.4755 40.6174 46.2034C40.5184 45.7825 40.4199 45.364 40.1738 44.9997C39.2856 44.996 37.9022 44.953 36.5189 44.485C36.1146 44.3482 35.8198 44.3739 35.6325 44.4575C35.4775 44.5267 35.1691 44.7347 34.9227 45.4742C34.7475 46 34.6676 46.736 34.7308 47.4313C34.7354 47.4822 34.9536 48.9317 35.2675 48.7725C36.1383 48.3306 37.0779 48.3908 37.7634 48.5299C38.4794 48.6752 39.153 48.9541 39.6626 49.2127C40.0086 49.3883 40.8471 49.9492 40.7153 51.0305C40.6095 51.8979 39.8757 52.4634 39.1005 52.7406C38.998 53.2961 39.1054 53.4442 39.4396 53.8922C39.9542 54.5823 40.4715 55.3628 40.4833 56.2553C40.4859 56.4516 40.6441 56.708 40.8555 56.9842ZM54.3555 17.7642C53.4157 16.2914 52.3342 14.9176 51.1304 13.6621C51.0978 13.731 51.0641 13.8007 51.0294 13.8711C50.4664 15.0119 49.4569 16.6968 47.8632 17.6196C47.0953 18.0642 46.1887 18.3473 45.4124 18.5537C45.1376 18.6267 44.8351 18.7006 44.5323 18.7723C45.3754 18.9283 46.2165 18.9999 46.8611 18.9999C47.4211 18.9999 47.8598 18.8232 48.4077 18.5233C48.4646 18.4921 48.5396 18.4497 48.6248 18.4015C48.8544 18.2717 49.1611 18.0981 49.4053 17.9802C49.7848 17.7969 50.3724 17.5555 51.0834 17.5555C51.6759 17.5555 53.1051 17.6623 54.3555 17.7642ZM30.4868 10.0248C30.4856 10.0245 30.4779 10.013 30.467 9.9914C30.4825 10.0144 30.488 10.0252 30.4868 10.0248ZM41.6156 19.6006L41.6134 19.6022C41.6123 19.603 41.6119 19.6034 41.612 19.6034C41.6124 19.6034 41.6181 19.6 41.6277 19.5928C41.6222 19.5962 41.6182 19.5988 41.6156 19.6006Z" fill="#fff"/>
</svg>
