<svg width="64" height="64" viewBox="0 0 64 64" fill="none" xmlns="http://www.w3.org/2000/svg">
<path fill-rule="evenodd" clip-rule="evenodd" d="M11.3416 8.32918C11.0876 7.821 10.5682 7.5 10 7.5C9.43184 7.5 8.91245 7.821 8.65836 8.32918L5.65836 14.3292C5.42587 14.7942 5.45072 15.3464 5.72403 15.7886C5.99734 16.2308 6.48014 16.5 7 16.5H8.5V53C8.5 53.8284 9.17157 54.5 10 54.5H52.5V56C52.5 56.5199 52.7692 57.0027 53.2114 57.276C53.6536 57.5493 54.2058 57.5741 54.6708 57.3416L60.6708 54.3416C61.179 54.0876 61.5 53.5682 61.5 53C61.5 52.4318 61.179 51.9124 60.6708 51.6584L54.6708 48.6584C54.2058 48.4259 53.6536 48.4507 53.2114 48.724C52.7692 48.9973 52.5 49.4801 52.5 50V51.5H11.5V16.5H13C13.5199 16.5 14.0027 16.2308 14.276 15.7886C14.5493 15.3464 14.5741 14.7942 14.3416 14.3292L11.3416 8.32918ZM10 12.3541L10.573 13.5H9.42705L10 12.3541ZM55.5 53.573L56.6459 53L55.5 52.4271V53.573Z" fill="#fff"/>
<path d="M20.5 22C20.5 21.1716 19.8284 20.5 19 20.5C18.1716 20.5 17.5 21.1716 17.5 22V47C17.5 47.8284 18.1716 48.5 19 48.5C19.8284 48.5 20.5 47.8284 20.5 47V22Z" fill="#fff"/>
<path d="M28 33C28.8284 33 29.5 33.6716 29.5 34.5V47C29.5 47.8284 28.8284 48.5 28 48.5C27.1716 48.5 26.5 47.8284 26.5 47V34.5C26.5 33.6716 27.1716 33 28 33Z" fill="#fff"/>
<path d="M37 37.5C37.8284 37.5 38.5 38.1716 38.5 39V47C38.5 47.8284 37.8284 48.5 37 48.5C36.1716 48.5 35.5 47.8284 35.5 47V39C35.5 38.1716 36.1716 37.5 37 37.5Z" fill="#fff"/>
<path d="M46 40C46.8284 40 47.5 40.6716 47.5 41.5V47C47.5 47.8284 46.8284 48.5 46 48.5C45.1716 48.5 44.5 47.8284 44.5 47V41.5C44.5 40.6716 45.1716 40 46 40Z" fill="#fff"/>
<path d="M38 12.5C38.8284 12.5 39.5 13.1716 39.5 14V14.7018C40.0176 14.8024 40.5028 14.9402 40.9238 15.0806C42.9823 15.7667 41.8086 18.5142 39.962 18.0073C39.3549 17.8407 38.6607 17.6541 38.1894 17.5417C37.7181 17.4293 37.2872 17.9254 37.9941 18.2026C38.7011 18.4798 39.6324 18.8511 40.4523 19.2391C41.6389 19.8007 43.3079 21.634 42.0603 23.8551C41.5763 24.7168 40.6079 25.2088 39.5 25.4223V26C39.5 26.8284 38.8284 27.5 38 27.5C37.1716 27.5 36.5 26.8284 36.5 26V25.4034C35.9266 25.2956 35.3983 25.1326 34.9658 24.9277C32.9946 23.9937 34.2977 21.7481 35.8225 22.0392C37.1383 22.2904 37.9174 22.3868 38.5249 22.4619C38.6213 22.4739 38.7135 22.4853 38.8028 22.4966C39.4543 22.5798 39.5954 22.0299 38.8028 21.7481C38.6575 21.6965 38.4842 21.6445 38.2886 21.5858C37.416 21.3242 36.0981 20.929 34.8383 19.8351C33.577 18.74 33.5651 16.818 35.0597 15.5239C35.4952 15.1469 35.9851 14.8984 36.5 14.7463V14C36.5 13.1716 37.1716 12.5 38 12.5Z" fill="#fff"/>
<path fill-rule="evenodd" clip-rule="evenodd" d="M38 8.5C31.6487 8.5 26.5 13.6487 26.5 20C26.5 26.3513 31.6487 31.5 38 31.5C40.6349 31.5 43.0628 30.6139 45.002 29.1233L51.9393 36.0607C52.5251 36.6464 53.4749 36.6464 54.0607 36.0607C54.6464 35.4749 54.6464 34.5251 54.0607 33.9393L47.1233 27.002C48.6139 25.0628 49.5 22.6349 49.5 20C49.5 13.6487 44.3513 8.5 38 8.5ZM29.5 20C29.5 15.3056 33.3056 11.5 38 11.5C42.6944 11.5 46.5 15.3056 46.5 20C46.5 24.6944 42.6944 28.5 38 28.5C33.3056 28.5 29.5 24.6944 29.5 20Z" fill="#fff"/>
</svg>
