<svg width="28" height="28" viewBox="0 0 28 28" fill="none" xmlns="http://www.w3.org/2000/svg">
<g opacity="0.8">
<path fill-rule="evenodd" clip-rule="evenodd" d="M28 14C28 21.732 21.732 28 14 28C6.26801 28 0 21.732 0 14C0 6.26801 6.26801 0 14 0C21.732 0 28 6.26801 28 14ZM17.6321 6.675C16.6821 6.63214 16.4 6.62143 13.9964 6.62143C11.5964 6.62143 11.3107 6.62857 10.3607 6.675C9.48214 6.71428 9.00714 6.86428 8.68929 6.98571C8.26786 7.14643 7.96786 7.34285 7.65357 7.65714C7.33929 7.97143 7.14643 8.27143 6.98214 8.69285C6.85714 9.01071 6.71071 9.48571 6.67143 10.3643C6.62857 11.3143 6.61786 11.5964 6.61786 14C6.61786 16.4036 6.62857 16.6857 6.67143 17.6357C6.71071 18.5143 6.86071 18.9893 6.98214 19.3071C7.14286 19.7286 7.33929 20.0286 7.65357 20.3428C7.96786 20.6571 8.26786 20.85 8.68929 21.0143C9.00714 21.1393 9.48214 21.2857 10.3607 21.325C11.3107 21.3678 11.5929 21.3786 13.9964 21.3786C16.4 21.3786 16.6821 21.3678 17.6321 21.325C18.5107 21.2857 18.9857 21.1357 19.3036 21.0143C19.725 20.8536 20.025 20.6571 20.3393 20.3428C20.6536 20.0286 20.8464 19.7286 21.0107 19.3071C21.1357 18.9893 21.2821 18.5143 21.3214 17.6357C21.3643 16.6857 21.375 16.4036 21.375 14C21.375 11.5964 21.3643 11.3143 21.3214 10.3643C21.2821 9.48571 21.1321 9.01071 21.0107 8.69285C20.85 8.27143 20.6536 7.97143 20.3393 7.65714C20.025 7.34285 19.725 7.15 19.3036 6.98571C18.9857 6.86071 18.5107 6.71428 17.6321 6.675ZM10.2857 5.05357C11.2464 5.01071 11.5536 5 13.9964 5C16.4393 5 16.7464 5.01071 17.7107 5.05C18.6714 5.09286 19.325 5.24643 19.8964 5.46786C20.4857 5.7 20.9893 6.00714 21.4893 6.50714C21.9893 7.00714 22.3 7.50714 22.5286 8.1C22.75 8.675 22.9036 9.32857 22.9464 10.2857C22.9893 11.2464 23 11.55 23 13.9964C23 16.4428 22.9893 16.7464 22.9464 17.7071C22.9036 18.6678 22.75 19.3214 22.5286 19.8928C22.2964 20.4821 21.9893 20.9857 21.4893 21.4857C20.9893 21.9857 20.4893 22.2964 19.8964 22.525C19.3214 22.7464 18.6679 22.9 17.7107 22.9428C16.75 22.9857 16.4464 22.9964 14 22.9964C11.5536 22.9964 11.25 22.9857 10.2893 22.9428C9.32857 22.9 8.675 22.7464 8.10357 22.525C7.51429 22.2928 7.01071 21.9857 6.51071 21.4857C6.01071 20.9857 5.7 20.4857 5.47143 19.8928C5.25 19.3178 5.09643 18.6643 5.05357 17.7071C5.01071 16.7464 5 16.4393 5 13.9964C5 11.5536 5.01071 11.2464 5.05357 10.2893C5.09643 9.32857 5.25 8.675 5.47143 8.10357C5.70357 7.51428 6.01071 7.01071 6.51071 6.51071C7.01071 6.01071 7.51071 5.7 8.10357 5.47143C8.675 5.25 9.32857 5.09643 10.2857 5.05357ZM13.9965 9.3788C11.4465 9.3788 9.37503 11.4467 9.37503 14.0002C9.37503 16.5538 11.4429 18.6216 13.9965 18.6216C16.55 18.6216 18.6179 16.5538 18.6179 14.0002C18.6179 11.4467 16.55 9.3788 13.9965 9.3788ZM13.9965 16.9967C12.3393 16.9967 10.9965 15.6538 10.9965 13.9967C10.9965 12.3395 12.3393 10.9967 13.9965 10.9967C15.6536 10.9967 16.9965 12.3395 16.9965 13.9967C16.9965 15.6538 15.6536 16.9967 13.9965 16.9967ZM19.8786 9.19284C19.8786 9.78852 19.3957 10.2714 18.8001 10.2714C18.2044 10.2714 17.7215 9.78852 17.7215 9.19284C17.7215 8.59717 18.2044 8.11427 18.8001 8.11427C19.3957 8.11427 19.8786 8.59717 19.8786 9.19284Z" fill="white"/>
</g>
</svg>
