<svg xmlns="http://www.w3.org/2000/svg" width="19.579" height="26.228" viewBox="0 0 19.579 26.228">
  <g id="Group_352" data-name="Group 352" transform="translate(-173 -6024.777)">
    <g id="Group_350" data-name="Group 350" transform="translate(173 6024.777)">
      <path id="Path_63" data-name="Path 63" d="M32.942,7.718A9.8,9.8,0,0,0,18.212,20.5L25.705,31a.588.588,0,0,0,.958,0L34.156,20.5A9.843,9.843,0,0,0,32.942,7.718Zm.265,12.109L26.184,29.66l-7.023-9.833a8.631,8.631,0,1,1,14.046,0Z" transform="translate(-16.387 -5.014)" fill="#0b7bff"/>
      <path id="Path_64" data-name="Path 64" d="M37.211,21.514a4.211,4.211,0,1,0,4.211,4.211A4.211,4.211,0,0,0,37.211,21.514Z" transform="translate(-27.696 -16.418)" fill="#0b7bff"/>
    </g>
  </g>
</svg>
