<svg width="64" height="64" viewBox="0 0 64 64" fill="none" xmlns="http://www.w3.org/2000/svg">
<path d="M10.5 9.5V29H7.5V9C7.5 7.61929 8.61929 6.5 10 6.5H44C45.3807 6.5 46.5 7.61929 46.5 9V13H43.5V9.5H10.5Z" fill="#FF396A"/>
<path fill-rule="evenodd" clip-rule="evenodd" d="M5 32.5C3.61929 32.5 2.5 33.6193 2.5 35V53C2.5 54.3807 3.61929 55.5 5 55.5H37C38.3807 55.5 39.5 54.3807 39.5 53V35C39.5 33.6193 38.3807 32.5 37 32.5H5ZM5.5 36.757V52.5H36.5V36.7576L22.9018 45.5564C21.7448 46.3051 20.2561 46.3051 19.099 45.5564L5.5 36.757ZM32.9212 35.5H9.07964L20.7288 43.0377C20.8941 43.1446 21.1068 43.1446 21.272 43.0377L32.9212 35.5Z" fill="#FF396A"/>
<path d="M30.5 19.5V29H27.5V19C27.5 17.6193 28.6193 16.5 30 16.5H61C62.3807 16.5 63.5 17.6193 63.5 19V37C63.5 38.3807 62.3807 39.5 61 39.5H43V36.5H60.5V19.5H30.5Z" fill="#FF396A"/>
<path d="M53 23C53 22.4477 53.4477 22 54 22H57C57.5523 22 58 22.4477 58 23V26C58 26.5523 57.5523 27 57 27H54C53.4477 27 53 26.5523 53 26V23Z" fill="#FF396A"/>
</svg>
