<svg width="20" height="20" viewBox="0 0 20 20" fill="none" xmlns="http://www.w3.org/2000/svg">
<path fill-rule="evenodd" clip-rule="evenodd" d="M13.2046 1.31064C13.416 1.22004 13.6572 1.23145 13.8591 1.34158L19.3591 4.34158C19.6001 4.473 19.75 4.72554 19.75 5V18C19.75 18.2647 19.6105 18.5098 19.3828 18.6449C19.1552 18.78 18.8732 18.7852 18.6409 18.6584L13.4606 15.8328L6.79544 18.6894C6.58404 18.78 6.34277 18.7686 6.14086 18.6584L0.640861 15.6584C0.399915 15.527 0.25 15.2745 0.25 15V2C0.25 1.7353 0.389534 1.4902 0.617152 1.35508C0.844769 1.21996 1.12676 1.21483 1.35914 1.34158L6.53936 4.16716L13.2046 1.31064ZM5.75 5.44523L1.75 3.26341V14.5548L5.75 16.7366V5.44523ZM7.25 16.8626L12.75 14.5055V3.1374L7.25 5.49455V16.8626ZM14.25 3.26341V14.5548L18.25 16.7366V5.44523L14.25 3.26341Z" fill="#fff"/>
</svg>
