<svg xmlns="http://www.w3.org/2000/svg" width="72" height="72" viewBox="0 0 72 72">
  <g id="Group_387" data-name="Group 387" transform="translate(-185 -2148)">
    <g id="Ellipse_76" data-name="Ellipse 76" transform="translate(185 2148)" fill="none" stroke="#0b7bff" stroke-width="2">
      <circle cx="36" cy="36" r="36" stroke="none"/>
      <circle cx="36" cy="36" r="35" fill="none"/>
    </g>
    <g id="Polygon_9" data-name="Polygon 9" transform="translate(236 2171) rotate(90)" fill="none">
      <path d="M12.638,1.469a1,1,0,0,1,1.725,0L26.116,21.494A1,1,0,0,1,25.254,23H1.746a1,1,0,0,1-.862-1.506Z" stroke="none"/>
      <path d="M 13.49999809265137 3.950992584228516 L 3.492973327636719 21 L 23.50702476501465 21 L 13.49999809265137 3.950992584228516 M 13.49999904632568 0.9755001068115234 C 13.83459377288818 0.9755001068115234 14.169189453125 1.140100479125977 14.36241912841797 1.469301223754883 L 26.11592864990234 21.49380111694336 C 26.50720977783203 22.16044044494629 26.02649879455566 23 25.25350952148438 23 L 1.746488571166992 23 C 0.9734992980957031 23 0.4927787780761719 22.16044044494629 0.8840694427490234 21.49380111694336 L 12.6375789642334 1.469301223754883 C 12.83080863952637 1.140100479125977 13.16540431976318 0.9755001068115234 13.49999904632568 0.9755001068115234 Z" stroke="none" fill="#0b7bff"/>
    </g>
  </g>
</svg>
