<svg width="64" height="64" viewBox="0 0 64 64" fill="none" xmlns="http://www.w3.org/2000/svg">
<path fill-rule="evenodd" clip-rule="evenodd" d="M20.5 20.5V18C20.5 14.4101 23.4101 11.5 27 11.5H49C52.5899 11.5 55.5 14.4101 55.5 18V32C55.5 35.4216 52.8562 38.2257 49.5 38.4811V42.1315C49.5 44.1282 47.2746 45.3192 45.6133 44.2116L42.4112 42.0769C41.9249 44.9936 39.4964 47.2531 36.5 47.4811V51.1315C36.5 53.1282 34.2746 54.3192 32.6132 53.2116L24.0458 47.5H14C10.4101 47.5 7.5 44.5899 7.5 41V27C7.5 23.4101 10.4101 20.5 14 20.5H20.5ZM23.5 18C23.5 16.067 25.067 14.5 27 14.5H49C50.933 14.5 52.5 16.067 52.5 18V32C52.5 33.933 50.933 35.5 49 35.5H48C47.1716 35.5 46.5 36.1716 46.5 37V41.1972L42.8047 38.7337C42.7073 38.6688 42.6051 38.6167 42.5 38.5772V27C42.5 23.4101 39.5899 20.5 36 20.5H23.5V18ZM10.5 27C10.5 25.067 12.067 23.5 14 23.5H36C37.933 23.5 39.5 25.067 39.5 27V41C39.5 42.933 37.933 44.5 36 44.5H35C34.1716 44.5 33.5 45.1716 33.5 46V50.1972L25.3321 44.7519C25.0856 44.5877 24.7961 44.5 24.5 44.5H14C12.067 44.5 10.5 42.933 10.5 41V27Z" fill="#0B7BFF"/>
</svg>
