<svg width="64" height="64" viewBox="0 0 64 64" fill="none" xmlns="http://www.w3.org/2000/svg">
<path fill-rule="evenodd" clip-rule="evenodd" d="M29.7465 8.22675C30.6545 6.33686 33.3455 6.33685 34.2534 8.22674L40.2315 20.6703L53.9134 22.5105C55.9913 22.79 56.8229 25.3493 55.3061 26.7968L45.3188 36.3276L47.7967 49.9085C48.173 51.9711 45.9959 53.5529 44.1505 52.5576L32 46.0043L19.8495 52.5576C18.0041 53.5529 15.827 51.9711 16.2033 49.9085L18.6811 36.3276L8.6939 26.7968C7.17707 25.3493 8.00864 22.79 10.0866 22.5105L23.7685 20.6703L29.7465 8.22675ZM32 10.464L26.3558 22.2125C25.9914 22.9711 25.2697 23.4954 24.4356 23.6076L11.518 25.345L20.9474 34.3434C21.5562 34.9244 21.8319 35.7728 21.6808 36.6008L19.3414 49.4231L30.8132 43.2358C31.554 42.8363 32.446 42.8363 33.1867 43.2358L44.6586 49.4231L42.3191 36.6008C42.1681 35.7728 42.4437 34.9244 43.0526 34.3434L52.482 25.345L39.5643 23.6076C38.7302 23.4954 38.0086 22.9711 37.6441 22.2125L32 10.464Z" fill="#fff
"/>
</svg>
