<svg xmlns="http://www.w3.org/2000/svg" width="69.071" height="45.025" viewBox="0 0 69.071 45.025">
  <g id="Group_511" data-name="Group 511" transform="translate(-187.643 -1642.73)">
    <g id="noun_Call_or_message_1519209" data-name="noun_Call or message_1519209" transform="translate(216.606 1637)">
      <g id="Group_370" data-name="Group 370">
        <path id="Path_3698" data-name="Path 3698" d="M38.675,42.107a38.572,38.572,0,0,1-16.716-3.776A39.022,39.022,0,0,1,3.779,20.154,38.6,38.6,0,0,1,0,3.432,1.433,1.433,0,0,1,1.432,2H8.738a2.852,2.852,0,0,1,2.836,2.621A28.291,28.291,0,0,0,13.92,13.6a2.859,2.859,0,0,1-1.309,3.736L7,20.169A36.209,36.209,0,0,0,21.939,35.114l2.828-5.621A2.871,2.871,0,0,1,28.5,28.184a28.158,28.158,0,0,0,8.984,2.349,2.85,2.85,0,0,1,2.621,2.836v7.305A1.433,1.433,0,0,1,38.675,42.107ZM24.528,36.349a35.707,35.707,0,0,0,12.714,2.865V33.37a30.569,30.569,0,0,1-9.906-2.57ZM2.893,4.868A35.663,35.663,0,0,0,5.761,17.582l5.563-2.8a30.675,30.675,0,0,1-2.6-9.9Z" transform="translate(0 3.73)" fill="#4367ff"/>
      </g>
    </g>
    <g id="noun_mail_bulk_2603111" data-name="noun_mail bulk_2603111" transform="translate(179.893 1621)">
      <g id="Group_327" data-name="Group 327" transform="translate(8 42.297)">
        <path id="Path_3673" data-name="Path 3673" d="M9.683,44.136v20.7H45.856v-20.7L28.72,56.629a1.614,1.614,0,0,1-1.9,0ZM9.614,42.3H45.925a1.614,1.614,0,0,1,1.614,1.614V64.89A1.614,1.614,0,0,1,45.925,66.5H9.614A1.614,1.614,0,0,1,8,64.89V43.91A1.614,1.614,0,0,1,9.614,42.3Zm33.719,1.669H12.206L27.769,54.818Z" transform="translate(-8 -42.297)" fill="#4367ff" stroke="#4367ff" stroke-width="0.5"/>
      </g>
    </g>
  </g>
</svg>
