<svg xmlns="http://www.w3.org/2000/svg" width="58" height="58" viewBox="0 0 58 58">
  <g id="noun_24_hours_3520713" data-name="noun_24 hours_3520713" transform="translate(-5 -5)">
    <path id="Path_3699" data-name="Path 3699" d="M63,34A29,29,0,1,1,14.28,12.733H10.156a1.289,1.289,0,1,1,0-2.578h7.733a1.1,1.1,0,0,1,.451.064h0c.064,0,.129.064.193.064H18.6c.064,0,.064.064.129.129a.063.063,0,0,1,.064.064l.129.129.064.064h0c0,.064.064.064.064.129s.064.064.064.129v.064a1.1,1.1,0,0,1,.064.451v7.733a1.289,1.289,0,0,1-2.578,0V14.151A26.393,26.393,0,1,0,34,7.578,1.289,1.289,0,0,1,34,5,29.044,29.044,0,0,1,63,34ZM17.244,34A16.756,16.756,0,1,1,34,50.756,16.8,16.8,0,0,1,17.244,34Zm2.578,0A14.178,14.178,0,1,0,34,19.822,14.219,14.219,0,0,0,19.822,34ZM34,35.289h6.444a1.289,1.289,0,1,0,0-2.578H35.289V24.978a1.289,1.289,0,1,0-2.578,0V34A1.293,1.293,0,0,0,34,35.289Z" fill="#ff7f21"/>
  </g>
</svg>
