<svg xmlns="http://www.w3.org/2000/svg" width="60.819" height="60.934" viewBox="0 0 60.819 60.934">
  <g id="noun_Check_2309216" transform="translate(-3.045 -2.998)">
    <path id="Path_3689" data-name="Path 3689" d="M3.045,29.416a10.522,10.522,0,0,0,10.5,10.516,10.044,10.044,0,0,0,1.586-.138,19.03,19.03,0,1,0,36.608-.084,9.933,9.933,0,0,0,2.031.222,10.09,10.09,0,1,0,0-20.179c-.107,0-.214,0-.32.006a10.6,10.6,0,0,0-10.586-10.3,10.184,10.184,0,0,0-4,.827,14.2,14.2,0,0,0-26.6,6.922,14.045,14.045,0,0,0,.111,1.759A10.528,10.528,0,0,0,3.045,29.416Zm30.4,32.078A16.594,16.594,0,1,1,50.043,44.9,16.612,16.612,0,0,1,33.45,61.494ZM13.529,21.339h0a1.363,1.363,0,0,0,1.252-.439,1.217,1.217,0,0,0,.231-1.034,11.761,11.761,0,0,1,22.2-7.46,1.219,1.219,0,0,0,1.706.564,8.04,8.04,0,0,1,3.951-1.076,8.161,8.161,0,0,1,8.152,8.152,4.149,4.149,0,0,1-.054.57c-.018.136-.036.27-.049.407a1.218,1.218,0,0,0,1.457,1.314,6.949,6.949,0,0,1,1.4-.145,7.652,7.652,0,1,1,0,15.3,7.349,7.349,0,0,1-3.132-.7,18.994,18.994,0,0,0-34.5.235,7.563,7.563,0,0,1-2.6.466,8.078,8.078,0,0,1-.02-16.157Z" fill="#ff5353"/>
    <path id="Path_3690" data-name="Path 3690" d="M37.4,31.385,23.433,43.332l-2.528-4.369a1.219,1.219,0,0,0-2.11,1.221l3.261,5.636a1.219,1.219,0,0,0,.85.59,1.2,1.2,0,0,0,.205.018,1.218,1.218,0,0,0,.792-.293l15.08-12.9A1.218,1.218,0,1,0,37.4,31.385Z" transform="translate(3.407 6.141)" fill="#ff5353"/>
  </g>
</svg>
