<svg width="64" height="64" viewBox="0 0 64 64" fill="none" xmlns="http://www.w3.org/2000/svg">
<path fill-rule="evenodd" clip-rule="evenodd" d="M28.5 11.5C19.1112 11.5 11.5 19.1112 11.5 28.5C11.5 37.8888 19.1112 45.5 28.5 45.5C37.8888 45.5 45.5 37.8888 45.5 28.5C45.5 19.1112 37.8888 11.5 28.5 11.5ZM8.5 28.5C8.5 17.4543 17.4543 8.5 28.5 8.5C39.5457 8.5 48.5 17.4543 48.5 28.5C48.5 33.4829 46.6777 38.0403 43.6632 41.5419L56.5607 54.4393C57.1464 55.0251 57.1464 55.9749 56.5607 56.5607C55.9749 57.1464 55.0251 57.1464 54.4393 56.5607L41.5419 43.6632C38.0403 46.6777 33.4829 48.5 28.5 48.5C17.4543 48.5 8.5 39.5457 8.5 28.5ZM20 22.5C20 21.6716 20.6716 21 21.5 21H35.5C36.3284 21 37 21.6716 37 22.5C37 23.3284 36.3284 24 35.5 24H21.5C20.6716 24 20 23.3284 20 22.5ZM21.5 27C20.6716 27 20 27.6716 20 28.5C20 29.3284 20.6716 30 21.5 30H35.5C36.3284 30 37 29.3284 37 28.5C37 27.6716 36.3284 27 35.5 27H21.5ZM20 34.5C20 33.6716 20.6716 33 21.5 33H35.5C36.3284 33 37 33.6716 37 34.5C37 35.3284 36.3284 36 35.5 36H21.5C20.6716 36 20 35.3284 20 34.5Z" fill="url(#paint0_linear)"/>
<defs>
<linearGradient id="paint0_linear" x1="10.5" y1="57" x2="66" y2="18.5" gradientUnits="userSpaceOnUse">
<stop stop-color="#6B6DEC"/>
<stop offset="1" stop-color="#BA3C8F"/>
</linearGradient>
</defs>
</svg>
