<svg xmlns="http://www.w3.org/2000/svg" width="69.009" height="52.01" viewBox="0 0 69.009 52.01">
  <g id="noun_pay_1134890" transform="translate(-13.5 -22.5)">
    <g id="Group_371" data-name="Group 371" transform="translate(14 23)">
      <path id="Path_3700" data-name="Path 3700" d="M64.062,23A12.279,12.279,0,1,0,76.341,35.279,12.308,12.308,0,0,0,64.062,23Zm0,3.778a8.5,8.5,0,1,1-8.5,8.5A8.473,8.473,0,0,1,64.062,26.778ZM37.378,42.836a1.889,1.889,0,0,0-.531.148L31,45.581a1.889,1.889,0,0,0-1.889-1.8H15.889q-.089,0-.177,0A1.889,1.889,0,0,0,14,45.67v22.67a1.889,1.889,0,0,0,1.889,1.889H29.113A1.889,1.889,0,0,0,31,68.339V66.45h1.564l20.456,7.438a1.889,1.889,0,0,0,1.594-.148L79.736,59.13l.059-.03a4.727,4.727,0,0,0-3.6-8.59h-.03c-.262.063-.165.046-.207.059s-.093.04-.148.059l-.413.148c-.357.129-.862.317-1.446.531-1.169.428-2.722,1-4.251,1.564l-4.487,1.653a4.526,4.526,0,0,0-.708-.886,6.344,6.344,0,0,0-2.6-1.387v-.03l-.177-.059-23.437-9.21A1.889,1.889,0,0,0,37.378,42.836Zm.3,3.926L60.52,55.735q.087.034.177.059a3.336,3.336,0,0,1,1.24.59c.2.185.236.245.236.62a.9.9,0,0,1-.945.945H52.2l-9.151-3.66A1.894,1.894,0,1,0,41.629,57.8l9.446,3.778a1.889,1.889,0,0,0,.708.148h9.446a4.736,4.736,0,0,0,4.487-3.365c.628-.232,2.645-.965,5.313-1.948,1.528-.563,3.056-1.138,4.221-1.564.582-.213,1.069-.376,1.417-.5.163-.059.291-.115.384-.148h.03a1.058,1.058,0,0,1,.207-.03.942.942,0,0,1,.5,1.742L53.495,70.022,33.541,62.76a1.889,1.889,0,0,0-.649-.089H31V49.714Zm-19.895.8h9.446V66.45H17.778Z" transform="translate(-14 -23)" fill="#27bc55" stroke="#daf9e4" stroke-width="1"/>
    </g>
  </g>
</svg>
