<svg xmlns="http://www.w3.org/2000/svg" width="72.619" height="50.081" viewBox="0 0 72.619 50.081">
  <g id="noun_Cloud_Upload_1974264" data-name="noun_Cloud Upload_1974264" transform="translate(-0.011 -79.46)">
    <path id="Path_54" data-name="Path 54" d="M61.509,94.051A19.729,19.729,0,0,0,26,88.307a10.408,10.408,0,0,0-6.691-2.433A10.673,10.673,0,0,0,8.743,96.644a11.007,11.007,0,0,0,.39,2.9A15.687,15.687,0,0,0,.011,113.864a15.529,15.529,0,0,0,15.376,15.677H30.751V115.734H22.4L36.32,99.042l13.917,16.692h-8.35v13.807H54.519a18.518,18.518,0,0,0,6.99-35.49Z" fill="#d1d1d1"/>
  </g>
</svg>
